<?xml version="1.0" standalone="no"?>
<!DOCTYPE svg PUBLIC "-//W3C//DTD SVG 20010904//EN"
 "http://www.w3.org/TR/2001/REC-SVG-20010904/DTD/svg10.dtd">
<svg version="1.0" xmlns="http://www.w3.org/2000/svg"
 width="408.000000pt" height="189.000000pt" viewBox="0 0 408.000000 189.000000"
 preserveAspectRatio="xMidYMid meet">

<g transform="translate(0.000000,189.000000) scale(0.100000,-0.100000)"
fill="#000000" stroke="none">
<path d="M60 935 l0 -885 1980 0 1980 0 0 885 0 885 -1980 0 -1980 0 0 -885z
m3920 0 l0 -845 -1940 0 -1940 0 0 845 0 845 1940 0 1940 0 0 -845z"/>
<path d="M853 1650 c-48 -29 -56 -69 -51 -266 5 -198 4 -194 120 -367 126
-188 128 -193 128 -379 0 -86 -4 -168 -10 -182 -12 -32 -43 -48 -91 -48 -88 1
-99 31 -99 265 l0 167 -25 0 -25 0 1 -187 c0 -206 7 -244 52 -277 41 -30 153
-30 194 0 51 38 54 53 51 264 -3 226 4 204 -134 406 -108 159 -117 190 -112
381 3 144 3 145 31 169 19 16 40 24 67 24 92 0 100 -19 100 -250 l0 -180 25 0
25 0 0 195 c0 209 -5 237 -52 269 -34 24 -154 22 -195 -4z"/>
<path d="M3612 1657 c-50 -29 -57 -51 -60 -218 -5 -218 3 -246 124 -426 52
-79 101 -161 109 -184 22 -61 21 -356 0 -387 -20 -27 -69 -41 -114 -31 -62 14
-69 40 -70 257 l-1 172 -25 0 -25 0 0 -182 c0 -200 8 -247 46 -277 57 -45 169
-38 221 14 l33 33 0 191 c0 229 2 223 -126 414 -51 76 -99 154 -106 175 -9 25
-13 91 -13 200 l0 164 28 24 c19 16 40 24 67 24 92 0 100 -19 100 -250 l0
-180 25 0 25 0 0 195 c0 209 -5 237 -52 269 -28 20 -152 21 -186 3z"/>
<path d="M240 1639 c0 -25 97 -1152 105 -1227 l6 -52 38 0 37 0 53 617 c29
340 55 633 58 651 5 32 4 33 -23 30 l-29 -3 -46 -530 c-26 -291 -48 -541 -50
-555 -2 -14 -23 202 -47 480 -57 665 -50 610 -78 610 -18 0 -24 -6 -24 -21z"/>
<path d="M640 1010 l0 -650 25 0 25 0 0 650 0 650 -25 0 -25 0 0 -650z"/>
<path d="M1220 1010 l0 -650 25 0 25 0 0 650 0 650 -25 0 -25 0 0 -650z"/>
<path d="M1380 1635 c0 -24 2 -25 65 -25 l65 0 0 -625 0 -625 25 0 25 0 0 625
0 625 70 0 c68 0 70 1 70 25 l0 25 -160 0 -160 0 0 -25z"/>
<path d="M2150 1010 l0 -650 90 0 c89 0 90 0 90 25 0 24 -2 25 -65 25 l-65 0
0 625 0 625 -25 0 -25 0 0 -650z"/>
<path d="M2550 1648 c0 -7 -23 -287 -50 -623 -27 -335 -50 -622 -50 -637 0
-23 4 -28 24 -28 21 0 24 6 31 57 9 73 16 89 94 208 55 83 66 95 69 75 1 -14
8 -95 15 -180 l12 -155 28 -3 c28 -3 28 -3 22 45 -3 26 -26 304 -50 618 -25
314 -48 585 -51 603 -5 31 -7 32 -49 32 -29 0 -45 -4 -45 -12z m75 -429 c35
-442 38 -406 -37 -516 -35 -50 -64 -90 -66 -89 -1 2 14 211 35 464 20 254 39
460 40 458 2 -2 15 -144 28 -317z"/>
<path d="M2860 1010 l0 -650 24 0 24 0 4 222 4 223 31 60 c17 33 39 71 50 84
l19 24 33 -52 c57 -88 60 -106 61 -343 l0 -218 31 0 31 0 -4 223 c-5 248 -12
280 -82 377 -20 28 -36 53 -36 57 0 4 18 34 40 67 67 104 72 126 77 364 l6
212 -32 0 -31 0 0 -210 c0 -167 -3 -218 -15 -248 -19 -44 -167 -272 -177 -272
-5 0 -8 164 -8 365 l0 365 -25 0 -25 0 0 -650z"/>
<path d="M3270 1010 l0 -650 95 0 c95 0 95 0 95 25 0 24 -2 25 -70 25 l-70 0
2 288 3 287 68 3 c64 3 67 4 67 27 0 24 -2 25 -70 25 l-70 0 0 285 0 284 68 3
c61 3 67 5 70 26 3 21 1 22 -92 22 l-96 0 0 -650z"/>
</g>
</svg>
